<svg xmlns="http://www.w3.org/2000/svg" viewBox="0 0 100 100">
  <defs>
    <linearGradient id="gradient" x1="0%" y1="0%" x2="100%" y2="100%">
      <stop offset="0%" style="stop-color:#B8946F;stop-opacity:1" />
      <stop offset="100%" style="stop-color:#4A3F36;stop-opacity:1" />
    </linearGradient>
  </defs>
  
  <!-- Background circle -->
  <circle cx="50" cy="50" r="45" fill="url(#gradient)" />
  
  <!-- Letter M (for Modular) -->
  <path d="M25 65 L25 35 L35 50 L45 35 L45 65 L40 65 L40 45 L35 55 L30 45 L30 65 Z" fill="#FAF7F2"/>
  
  <!-- Letter S (for Site) -->
  <path d="M55 45 C55 40 58 37 63 37 C68 37 71 40 71 45 L66 45 C66 42 65 42 63 42 C61 42 60 42 60 45 C60 48 61 48 63 48 L67 48 C70 48 75 50 75 57 C75 62 72 65 67 65 C62 65 57 62 57 57 L62 57 C62 60 63 60 67 60 C69 60 70 60 70 57 C70 54 69 54 67 54 L63 54 C58 54 55 52 55 45 Z" fill="#FAF7F2"/>
</svg>
